<svg width="156" height="80" viewBox="0 0 156 80" fill="none" xmlns="http://www.w3.org/2000/svg">
<path d="M14.8807 67.0021C12.142 67.0021 9.77841 66.4624 7.78977 65.3828C5.8125 64.2919 4.28977 62.7408 3.22159 60.7294C2.16477 58.7067 1.63636 56.3033 1.63636 53.5192C1.63636 50.8146 2.17045 48.451 3.23864 46.4283C4.30682 44.3942 5.8125 42.8146 7.75568 41.6896C9.69886 40.5533 11.9886 39.9851 14.625 39.9851C16.4886 39.9851 18.1932 40.2749 19.7386 40.8544C21.2841 41.4339 22.6193 42.2919 23.7443 43.4283C24.8693 44.5646 25.7443 45.968 26.3693 47.6385C26.9943 49.2976 27.3068 51.201 27.3068 53.3487V55.4283H4.55114V50.5874H19.5511C19.5398 49.701 19.3295 48.9112 18.9205 48.218C18.5114 47.5249 17.9489 46.9851 17.233 46.5987C16.5284 46.201 15.7159 46.0021 14.7955 46.0021C13.8636 46.0021 13.0284 46.2124 12.2898 46.6328C11.5511 47.0419 10.9659 47.6044 10.5341 48.3203C10.1023 49.0249 9.875 49.826 9.85227 50.7237V55.6499C9.85227 56.718 10.0625 57.6555 10.483 58.4624C10.9034 59.2578 11.5 59.8771 12.2727 60.3203C13.0455 60.7635 13.9659 60.9851 15.0341 60.9851C15.7727 60.9851 16.4432 60.8828 17.0455 60.6783C17.6477 60.4737 18.1648 60.1726 18.5966 59.7749C19.0284 59.3771 19.3523 58.8885 19.5682 58.3089L27.2216 58.5305C26.9034 60.2464 26.2045 61.7408 25.125 63.0135C24.0568 64.2749 22.6534 65.2578 20.9148 65.9624C19.1761 66.6555 17.1648 67.0021 14.8807 67.0021ZM56.2585 40.326L47.2756 66.5078H37.7301L28.7642 40.326H37.5426L42.3665 58.3601H42.6392L47.4801 40.326H56.2585ZM70.8324 67.0021C68.0824 67.0021 65.7188 66.4396 63.7415 65.3146C61.7756 64.1783 60.2585 62.5987 59.1903 60.576C58.1335 58.5419 57.6051 56.1839 57.6051 53.5021C57.6051 50.8089 58.1335 48.451 59.1903 46.4283C60.2585 44.3942 61.7756 42.8146 63.7415 41.6896C65.7188 40.5533 68.0824 39.9851 70.8324 39.9851C73.5824 39.9851 75.9403 40.5533 77.9062 41.6896C79.8835 42.8146 81.4006 44.3942 82.4574 46.4283C83.5256 48.451 84.0597 50.8089 84.0597 53.5021C84.0597 56.1839 83.5256 58.5419 82.4574 60.576C81.4006 62.5987 79.8835 64.1783 77.9062 65.3146C75.9403 66.4396 73.5824 67.0021 70.8324 67.0021ZM70.8835 60.7124C71.8835 60.7124 72.7301 60.4055 73.4233 59.7919C74.1165 59.1783 74.6449 58.326 75.0085 57.2351C75.3835 56.1442 75.571 54.8828 75.571 53.451C75.571 51.9964 75.3835 50.7237 75.0085 49.6328C74.6449 48.5419 74.1165 47.6896 73.4233 47.076C72.7301 46.4624 71.8835 46.1555 70.8835 46.1555C69.8494 46.1555 68.9744 46.4624 68.2585 47.076C67.554 47.6896 67.0142 48.5419 66.6392 49.6328C66.2756 50.7237 66.0938 51.9964 66.0938 53.451C66.0938 54.8828 66.2756 56.1442 66.6392 57.2351C67.0142 58.326 67.554 59.1783 68.2585 59.7919C68.9744 60.4055 69.8494 60.7124 70.8835 60.7124ZM96.6648 31.5987V66.5078H88.3295V31.5987H96.6648ZM127.368 40.326L118.385 66.5078H108.839L99.8736 40.326H108.652L113.476 58.3601H113.749L118.589 40.326H127.368ZM141.959 67.0021C139.22 67.0021 136.857 66.4624 134.868 65.3828C132.891 64.2919 131.368 62.7408 130.3 60.7294C129.243 58.7067 128.714 56.3033 128.714 53.5192C128.714 50.8146 129.249 48.451 130.317 46.4283C131.385 44.3942 132.891 42.8146 134.834 41.6896C136.777 40.5533 139.067 39.9851 141.703 39.9851C143.567 39.9851 145.271 40.2749 146.817 40.8544C148.362 41.4339 149.697 42.2919 150.822 43.4283C151.947 44.5646 152.822 45.968 153.447 47.6385C154.072 49.2976 154.385 51.201 154.385 53.3487V55.4283H131.629V50.5874H146.629C146.618 49.701 146.408 48.9112 145.999 48.218C145.589 47.5249 145.027 46.9851 144.311 46.5987C143.607 46.201 142.794 46.0021 141.874 46.0021C140.942 46.0021 140.107 46.2124 139.368 46.6328C138.629 47.0419 138.044 47.6044 137.612 48.3203C137.18 49.0249 136.953 49.826 136.93 50.7237V55.6499C136.93 56.718 137.141 57.6555 137.561 58.4624C137.982 59.2578 138.578 59.8771 139.351 60.3203C140.124 60.7635 141.044 60.9851 142.112 60.9851C142.851 60.9851 143.521 60.8828 144.124 60.6783C144.726 60.4737 145.243 60.1726 145.675 59.7749C146.107 59.3771 146.43 58.8885 146.646 58.3089L154.3 58.5305C153.982 60.2464 153.283 61.7408 152.203 63.0135C151.135 64.2749 149.732 65.2578 147.993 65.9624C146.254 66.6555 144.243 67.0021 141.959 67.0021Z" fill="white"/>
<rect x="10.5" y="0.992508" width="15" height="15" rx="3.5" fill="#18181B" stroke="#27272A"/>
<rect x="30.5" y="0.992508" width="15" height="15" rx="3.5" fill="#7C2D12" stroke="#C2410C"/>
<rect x="50.5" y="0.992508" width="15" height="15" rx="3.5" fill="#9A3412" stroke="#EA580C"/>
<rect x="70.5" y="0.992508" width="15" height="15" rx="3.5" fill="#C2410C" stroke="#F97316"/>
<rect x="90.5" y="0.992508" width="15" height="15" rx="3.5" fill="#EA580C" stroke="#FB923C"/>
<rect x="110.5" y="0.992508" width="15" height="15" rx="3.5" fill="#F97316" stroke="#FDBA74"/>
</svg>
